<svg  xmlns="http://www.w3.org/2000/svg" viewBox="0 0 137.17 98.7"><g class="Calque_1-2"><path class="cls-1" d="M119.73,6.52c-1.97,2.82-3.94,5.63-5.9,8.45-4.72,6.76-9.45,13.52-14.17,20.28-5.69,8.14-11.38,16.29-17.07,24.43-4.94,7.07-9.88,14.15-14.83,21.22-2.4,3.44-4.87,6.84-7.21,10.32-.03,.05-.07,.1-.1,.15l17.07-4.15c-1.97-2.82-3.94-5.63-5.9-8.45-4.72-6.76-9.45-13.52-14.17-20.28-5.69-8.14-11.38-16.29-17.07-24.43-4.94-7.07-9.88-14.15-14.83-21.22-2.4-3.44-4.75-6.92-7.21-10.32-.03-.05-.07-.1-.1-.15C15.68-1.28,10.02-.09,6.66,1.76,4.58,2.9,2.36,4.41,1.16,6.52c-.78,1.37-1.76,3.52-.7,5.02,1.97,2.82,3.94,5.63,5.9,8.45l14.17,20.28c5.69,8.14,11.38,16.29,17.07,24.43,4.94,7.07,9.88,14.15,14.83,21.22,2.4,3.44,4.73,6.94,7.21,10.32,.04,.05,.07,.1,.1,.15,1.81,2.6,5.08,2.61,7.92,1.93,3.65-.87,6.99-2.99,9.15-6.08,1.97-2.82,3.94-5.63,5.9-8.45,4.72-6.76,9.45-13.52,14.17-20.28l17.07-24.43c4.94-7.07,9.88-14.15,14.83-21.22,2.4-3.44,4.9-6.82,7.21-10.32,.03-.05,.07-.1,.1-.15,.93-1.33,1.5-3.49,.7-5.02S133.93,.09,132.3,.04c-4.87-.14-9.8,2.53-12.57,6.48h0Z"/></g></svg>